PathFileType	4	(X/Y/Z)	/Users/itak/Documents/Research/Walk-IL/dataset/trc/00162_00008.trc
DataRate	CameraRate	NumFrames	NumMarkers	Units	OrigDataRate	OrigDataStartFrame	OrigNumFrames
100.000000	100.000000	4	53	mm	100.000000	77	617
Frame#	Time	RPSI			LPSI			L3			STRN			T10			C7			CLAV			RBAK			LBAK			LSHO			LUPA			LAEL			LAOL			LWTS			LWPS			LFRA			LIFD			LHPS			LHTS			RSHO			RUPA			RAEL			RAOL			RWTS			RWPS			RFRA			RIFD			RHTS			RHPS			RBHD			LFHD			RFHD			LBHD			LHIP			RHIP			RASI			LASI			LKNE			LTHI			LANK			LTIP			LTOE			LMT1			LMT5			LHEE			RKNE			RTHI			RANK			RTIP			RTOE			RMT1			RMT5			RHEE			
		X1	Y1	Z1	X2	Y2	Z2	X3	Y3	Z3	X4	Y4	Z4	X5	Y5	Z5	X6	Y6	Z6	X7	Y7	Z7	X8	Y8	Z8	X9	Y9	Z9	X10	Y10	Z10	X11	Y11	Z11	X12	Y12	Z12	X13	Y13	Z13	X14	Y14	Z14	X15	Y15	Z15	X16	Y16	Z16	X17	Y17	Z17	X18	Y18	Z18	X19	Y19	Z19	X20	Y20	Z20	X21	Y21	Z21	X22	Y22	Z22	X23	Y23	Z23	X24	Y24	Z24	X25	Y25	Z25	X26	Y26	Z26	X27	Y27	Z27	X28	Y28	Z28	X29	Y29	Z29	X30	Y30	Z30	X31	Y31	Z31	X32	Y32	Z32	X33	Y33	Z33	X34	Y34	Z34	X35	Y35	Z35	X36	Y36	Z36	X37	Y37	Z37	X38	Y38	Z38	X39	Y39	Z39	X40	Y40	Z40	X41	Y41	Z41	X42	Y42	Z42	X43	Y43	Z43	X44	Y44	Z44	X45	Y45	Z45	X46	Y46	Z46	X47	Y47	Z47	X48	Y48	Z48	X49	Y49	Z49	X50	Y50	Z50	X51	Y51	Z51	X52	Y52	Z52	X53	Y53	Z53	

78	0.77	-2141.760009765625	1053.117919921875	-26.60955619812012	-2126.427734375	1052.10400390625	-149.9380798339844	-2133.178955078125	1089.981689453125	-85.84832000732422	-1873.865966796875	1297.900756835938	-70.26993560791016	-2166.4052734375	1247.013671875	-97.71149444580078	-2100.821533203125	1516.901733398438	-108.9270782470703	-1900.813110351562	1411.58837890625	-83.75796508789062	-2177.251220703125	1343.5029296875	-1.364385604858398	-2096.705078125	1488.510375976562	-210.7724304199219	-2011.371826171875	1474.791259765625	-280.4586181640625	-2031.140991210938	1341.349243164062	-355.5063781738281	-2005.1845703125	1121.44970703125	-366.8648986816406	-2066.5185546875	1107.27392578125	-305.0216369628906	-1895.730834960938	895.1220092773438	-302.9002075195312	-1964.850708007812	870.0850219726562	-361.6696472167969	-1984.674682617188	1011.416320800781	-373.7198791503906	-1901.51611328125	728.182861328125	-258.6478881835938	-1944.2666015625	800.5791625976562	-350.3614501953125	-1879.842651367188	813.9978637695312	-317.37353515625	-2053.881103515625	1499.190307617188	78.28626251220703	-2077.769287109375	1433.624877929688	148.3634338378906	-2089.8505859375	1144.063598632812	207.0524444580078	-2095.814697265625	1136.542602539062	108.3283767700195	-1940.99365234375	920.8831176757812	184.3907165527344	-2015.0029296875	902.29248046875	233.3453369140625	-2061.986083984375	1072.203125	224.7444915771484	-1921.977783203125	733.0289916992188	164.798828125	-1911.385498046875	827.7003784179688	194.6904296875	-1983.020141601562	819.8208618164062	230.7062530517578	-2054.457763671875	1677.621215820312	-35.31832122802734	-1869.545288085938	1728.878662109375	-138.6216583251953	-1888.475708007812	1729.309326171875	-10.64127731323242	-2040.49169921875	1684.84521484375	-172.2282409667969	-2008.519409179688	989.2990112304688	-254.9852294921875	-2006.982666015625	1011.874450683594	105.059455871582	-1911.82080078125	1043.587890625	67.62876129150391	-1890.376098632812	1027.330932617188	-190.3891906738281	-2002.749877929688	496.1475219726562	-218.3362884521484	-1989.291870117188	637.4150390625	-245.3234405517578	-2098.5341796875	43.80801010131836	-232.6073913574219	-2048.25439453125	276.2757873535156	-238.8658905029297	-1877.972045898438	38.98495101928711	-218.1306610107422	-1926.740112304688	39.02622222900391	-166.9615020751953	-1992.687622070312	34.37619781494141	-277.0201110839844	-2145.654296875	40.79661560058594	-159.7031402587891	-1992.753540039062	514.141357421875	98.13861846923828	-1947.804321289062	786.4830932617188	128.0142211914062	-2092.060791015625	37.72265625	100.6413803100586	-1986.808959960938	396.0918884277344	81.81293487548828	-1867.718383789062	38.75582885742188	73.95673370361328	-1921.922241210938	37.0100212097168	25.70327568054199	-1979.99755859375	34.3276252746582	139.6993103027344	-2139.296630859375	36.35971069335938	31.74618148803711	
79	0.78	-2141.734619140625	1053.105590820312	-26.579345703125	-2126.42529296875	1052.110961914062	-149.9150543212891	-2133.17431640625	1089.976318359375	-85.83839416503906	-1873.89990234375	1297.882934570312	-70.24513244628906	-2166.40234375	1247.004272460938	-97.65937805175781	-2100.83349609375	1516.889892578125	-108.8985443115234	-1900.863891601562	1411.582153320312	-83.71869659423828	-2177.26123046875	1343.4853515625	-1.326919078826904	-2096.73974609375	1488.504150390625	-210.7171478271484	-2011.418823242188	1474.778076171875	-280.4081420898438	-2031.180541992188	1341.325073242188	-355.41845703125	-2005.205932617188	1121.426513671875	-366.7554016113281	-2066.556884765625	1107.26904296875	-304.9225158691406	-1895.79931640625	895.137939453125	-302.7254333496094	-1964.882568359375	870.08056640625	-361.5015258789062	-1984.72509765625	1011.393432617188	-373.6167602539062	-1901.135986328125	727.4702758789062	-258.9178466796875	-1944.152587890625	800.5921020507812	-350.1812438964844	-1879.82470703125	814.0552978515625	-317.1982421875	-2053.911865234375	1499.174438476562	78.33805084228516	-2077.756103515625	1433.588623046875	148.4176025390625	-2089.794921875	1144.018310546875	207.0625152587891	-2095.78955078125	1136.539794921875	108.3146896362305	-1940.889038085938	920.8721923828125	184.3578033447266	-2014.859375	902.2587890625	233.3111572265625	-2061.91796875	1072.157836914062	224.7344207763672	-1921.821899414062	733.047119140625	164.7163848876953	-1911.267456054688	827.6586303710938	194.6382598876953	-1982.909912109375	819.7833251953125	230.6656036376953	-2054.4853515625	1677.651489257812	-35.26245498657227	-1869.632690429688	1728.896362304688	-138.7013549804688	-1888.479614257812	1729.327880859375	-10.70204925537109	-2040.609130859375	1684.845703125	-172.1628570556641	-2008.53271484375	989.30419921875	-254.9821472167969	-2006.982666015625	1011.874267578125	105.0594787597656	-1911.747314453125	1043.478393554688	67.55458831787109	-1890.3759765625	1027.34912109375	-190.3925018310547	-2002.709838867188	496.1469421386719	-218.3123474121094	-1989.271850585938	637.4210205078125	-245.3104400634766	-2098.52587890625	43.81536102294922	-232.5921783447266	-2048.23095703125	276.2766418457031	-238.8457336425781	-1877.968505859375	38.98968505859375	-218.1294403076172	-1926.737548828125	39.01882553100586	-166.9574127197266	-1992.686157226562	34.37963485717773	-277.0055236816406	-2145.65380859375	40.79679870605469	-159.691162109375	-1992.752563476562	514.1469116210938	98.16376495361328	-1947.753173828125	786.5109252929688	128.0072631835938	-2092.0810546875	37.69847106933594	100.6644897460938	-1986.814453125	396.0957336425781	81.86126708984375	-1867.729248046875	38.76688003540039	73.96962738037109	-1921.927001953125	37.0323486328125	25.72103691101074	-1980.010009765625	34.30705642700195	139.7160797119141	-2139.302978515625	36.3630256652832	31.76916313171387	
80	0.79	-2141.705322265625	1053.092651367188	-26.55442428588867	-2126.420654296875	1052.117309570312	-149.8947906494141	-2133.167724609375	1089.970947265625	-85.83048248291016	-1873.932006835938	1297.866821289062	-70.22610473632812	-2166.40234375	1246.99169921875	-97.61295318603516	-2100.851806640625	1516.874389648438	-108.8752136230469	-1900.917724609375	1411.5771484375	-83.68775177001953	-2177.2744140625	1343.466552734375	-1.295180201530457	-2096.78173828125	1488.493774414062	-210.6697235107422	-2011.473388671875	1474.759765625	-280.3678588867188	-2031.226318359375	1341.291625976562	-355.3388977050781	-2005.22412109375	1121.39794921875	-366.6504821777344	-2066.587890625	1107.257690429688	-304.8248596191406	-1895.870849609375	895.1463623046875	-302.5616455078125	-1964.897216796875	870.0714111328125	-361.331787109375	-1984.763793945312	1011.362609863281	-373.514404296875	-1900.76318359375	726.7918090820312	-259.1761474609375	-1944.0302734375	800.59814453125	-349.9950866699219	-1879.792114257812	814.1109008789062	-317.0079956054688	-2053.944091796875	1499.159423828125	78.38046264648438	-2077.74755859375	1433.556762695312	148.4620361328125	-2089.7373046875	1143.977172851562	207.0746612548828	-2095.767578125	1136.528564453125	108.3036575317383	-1940.772827148438	920.8724365234375	184.3210144042969	-2014.698364257812	902.2315673828125	233.2762145996094	-2061.84326171875	1072.116088867188	224.7244873046875	-1921.64794921875	733.0711669921875	164.6220092773438	-1911.132080078125	827.6275634765625	194.5744018554688	-1982.781860351562	819.7579345703125	230.6268310546875	-2054.504150390625	1677.680419921875	-35.21307373046875	-1869.694946289062	1728.898559570312	-138.7801513671875	-1888.475708007812	1729.343017578125	-10.76830768585205	-2040.702026367188	1684.84716796875	-172.1124725341797	-2008.5439453125	989.3082275390625	-254.9810638427734	-2006.983154296875	1011.874145507812	105.0596313476562	-1911.666137695312	1043.36279296875	67.47054290771484	-1890.373168945312	1027.367919921875	-190.3995666503906	-2002.664184570312	496.1453552246094	-218.2911071777344	-1989.245361328125	637.429931640625	-245.3030853271484	-2098.518798828125	43.82143783569336	-232.57666015625	-2048.20068359375	276.2765502929688	-238.8259429931641	-1877.965576171875	38.99221801757812	-218.1275177001953	-1926.734619140625	39.009521484375	-166.9520111083984	-1992.685668945312	34.38314437866211	-276.9897155761719	-2145.654052734375	40.79890060424805	-159.6784210205078	-1992.745483398438	514.1538696289062	98.19322204589844	-1947.698974609375	786.5410766601562	128.0014495849609	-2092.09716796875	37.67778396606445	100.6890640258789	-1986.816040039062	396.1008911132812	81.91384124755859	-1867.740112304688	38.77824783325195	73.98200988769531	-1921.934936523438	37.05630111694336	25.7398567199707	-1980.024658203125	34.28488540649414	139.7355499267578	-2139.30517578125	36.36589813232422	31.79635810852051	
81	0.8	-2141.672119140625	1053.07666015625	-26.53658103942871	-2126.4130859375	1052.121948242188	-149.8785400390625	-2133.159912109375	1089.965576171875	-85.82463836669922	-1873.961303710938	1297.853759765625	-70.21247863769531	-2166.40380859375	1246.975463867188	-97.57237243652344	-2100.875732421875	1516.854614257812	-108.8554153442383	-1900.974487304688	1411.57373046875	-83.66667175292969	-2177.291748046875	1343.4462890625	-1.270854949951172	-2096.831298828125	1488.478881835938	-210.6310577392578	-2011.535522460938	1474.737182617188	-280.3382263183594	-2031.279907226562	1341.248779296875	-355.2677612304688	-2005.241577148438	1121.365234375	-366.551513671875	-2066.611572265625	1107.240112304688	-304.7295532226562	-1895.942016601562	895.1478271484375	-302.4112854003906	-1964.8955078125	870.0567016601562	-361.1610717773438	-1984.790649414062	1011.323547363281	-373.413330078125	-1900.379638671875	726.1486206054688	-259.3956298828125	-1943.907958984375	800.596923828125	-349.8070373535156	-1879.75	814.1589965820312	-316.8107604980469	-2053.97802734375	1499.145141601562	78.41254425048828	-2077.744873046875	1433.53076171875	148.4954071044922	-2089.6787109375	1143.940185546875	207.0884552001953	-2095.751953125	1136.505859375	108.298828125	-1940.644653320312	920.8845825195312	184.2808532714844	-2014.523315429688	902.2118530273438	233.2412109375	-2061.76318359375	1072.078125	224.7138671875	-1921.46142578125	733.1029052734375	164.5145111083984	-1910.9775390625	827.6123046875	194.4973297119141	-1982.634887695312	819.7442016601562	230.5902557373047	-2054.514892578125	1677.708740234375	-35.17154693603516	-1869.734497070312	1728.885986328125	-138.8585510253906	-1888.46435546875	1729.353759765625	-10.84049415588379	-2040.774536132812	1684.851684570312	-172.0772857666016	-2008.550415039062	989.3109741210938	-254.9816741943359	-2006.984252929688	1011.873840332031	105.0599822998047	-1911.581420898438	1043.250610351562	67.38359832763672	-1890.36572265625	1027.386962890625	-190.4095306396484	-2002.614624023438	496.1434020996094	-218.2744445800781	-1989.212646484375	637.4415893554688	-245.3028411865234	-2098.514404296875	43.82586669921875	-232.5617523193359	-2048.164306640625	276.2751770019531	-238.8078460693359	-1877.963989257812	38.99267196655273	-218.1257781982422	-1926.731201171875	38.99849319458008	-166.9454040527344	-1992.685791015625	34.38719940185547	-276.9742736816406	-2145.658447265625	40.80461502075195	-159.6674346923828	-1992.731323242188	514.1629028320312	98.22701263427734	-1947.644409179688	786.5707397460938	127.9968643188477	-2092.1064453125	37.66302108764648	100.7141723632812	-1986.812622070312	396.1070251464844	81.96931457519531	-1867.750366210938	38.78937530517578	73.99376678466797	-1921.946166992188	37.08010101318359	25.75886726379395	-1980.039306640625	34.26302719116211	139.7578735351562	-2139.302978515625	36.36819458007812	31.82701683044434	
